<?xml version="1.0" encoding="utf-8"?>
<!-- Generator: Adobe Illustrator 16.0.0, SVG Export Plug-In . SVG Version: 6.00 Build 0)  -->
<!DOCTYPE svg PUBLIC "-//W3C//DTD SVG 1.1//EN" "http://www.w3.org/Graphics/SVG/1.1/DTD/svg11.dtd">
<svg version="1.1" id="Layer_1" xmlns="http://www.w3.org/2000/svg" xmlns:xlink="http://www.w3.org/1999/xlink" x="0px" y="0px" viewBox="0 0 110 42" enable-background="new 0 0 110 42" xml:space="preserve">
<g>
	<g>
		<circle fill="#dc3545" cx="32.4" cy="22.042" r="0.64"/>
		<circle fill="#dc3545" cx="37.519" cy="22.042" r="0.64"/>
		<path fill="#dc3545" d="M36.817,25.484c-0.547,0.548-1.206,0.819-1.978,0.819c-0.769,0-1.428-0.271-1.972-0.819
			c-0.547-0.547-0.819-1.205-0.819-1.979h-0.554c0,0.925,0.326,1.715,0.978,2.367c0.654,0.652,1.443,0.979,2.366,0.979
			c0.925,0,1.714-0.327,2.368-0.979s0.983-1.442,0.983-2.367h-0.558C37.633,24.279,37.36,24.938,36.817,25.484z"/>
	</g>
	<g>
		<path fill="#dc3545" d="M22.831,31.234l-3.438-6.004c-0.34-0.593-0.671-1.091-0.986-1.489c-0.321-0.398-0.649-0.718-0.991-0.956
			c-0.338-0.239-0.702-0.409-1.088-0.512c-0.387-0.102-0.82-0.154-1.297-0.154h-2.517v9.115h-2.117V10.289h6.575
			c0.859,0,1.689,0.117,2.492,0.351c0.799,0.233,1.514,0.579,2.141,1.037c0.625,0.457,1.127,1.031,1.504,1.724
			c0.379,0.691,0.564,1.495,0.564,2.409c0,0.741-0.119,1.422-0.365,2.045c-0.246,0.624-0.592,1.177-1.044,1.659
			c-0.449,0.481-0.998,0.89-1.64,1.227c-0.641,0.335-1.365,0.586-2.172,0.752v0.059c0.309,0.116,0.589,0.268,0.844,0.452
			c0.254,0.185,0.502,0.409,0.739,0.673c0.24,0.262,0.478,0.563,0.711,0.905c0.231,0.341,0.477,0.73,0.729,1.168l3.838,6.485H22.831
			z M12.513,12.07v8.283h3.788c0.768,0,1.467-0.104,2.104-0.308c0.635-0.204,1.179-0.497,1.629-0.877
			c0.452-0.379,0.802-0.837,1.052-1.372s0.374-1.14,0.374-1.812c0-1.217-0.427-2.174-1.281-2.87
			c-0.856-0.695-2.09-1.045-3.702-1.045H12.513z"/>
		<path fill="#dc3545" d="M56.606,31.234l-7.5-7.289h-0.063v7.289h-2.037V9.091h2.037v14.154h0.063l7.119-6.968h2.658l-7.645,7.229
			l8.252,7.728H56.606z"/>
		<path fill="#dc3545" d="M63.536,12.494c-0.393,0-0.73-0.126-1.018-0.379c-0.285-0.254-0.43-0.575-0.43-0.964
			c0-0.38,0.145-0.694,0.43-0.942c0.287-0.248,0.625-0.373,1.018-0.373c0.203,0,0.395,0.032,0.574,0.096s0.337,0.153,0.471,0.27
			c0.132,0.117,0.238,0.256,0.318,0.417c0.08,0.16,0.119,0.337,0.119,0.533c0,0.185-0.039,0.359-0.111,0.525
			c-0.076,0.166-0.18,0.31-0.318,0.431c-0.139,0.122-0.297,0.217-0.469,0.285C63.942,12.46,63.75,12.494,63.536,12.494z
			 M62.536,31.234V16.277h2.035v14.957H62.536z"/>
		<path fill="#dc3545" d="M81.454,31.234v-2.629h-0.064c-0.543,0.944-1.314,1.677-2.316,2.198c-1.004,0.521-2.143,0.781-3.416,0.781
			c-1.02,0-1.945-0.173-2.776-0.52c-0.833-0.345-1.548-0.844-2.142-1.496c-0.595-0.652-1.055-1.441-1.377-2.367
			c-0.324-0.925-0.487-1.972-0.487-3.141c0-1.207,0.179-2.309,0.534-3.308c0.357-0.998,0.859-1.854,1.512-2.57
			s1.439-1.271,2.357-1.665c0.916-0.395,1.939-0.593,3.064-0.593c2.346,0,4.027,0.863,5.047,2.586h0.064V9.091h2.037v22.144H81.454z
			 M81.454,22.208c0-0.652-0.123-1.262-0.367-1.826s-0.586-1.057-1.02-1.476c-0.436-0.419-0.957-0.75-1.568-0.993
			c-0.611-0.242-1.281-0.365-2.012-0.365c-0.809,0-1.551,0.146-2.23,0.438s-1.262,0.714-1.744,1.264
			c-0.48,0.55-0.859,1.219-1.129,2.008c-0.271,0.789-0.406,1.685-0.406,2.688c0,0.945,0.121,1.793,0.365,2.541
			c0.244,0.75,0.594,1.384,1.045,1.899c0.447,0.518,0.988,0.91,1.613,1.184c0.627,0.272,1.32,0.409,2.086,0.409
			c0.83,0,1.572-0.137,2.238-0.409c0.662-0.273,1.225-0.647,1.688-1.125c0.462-0.477,0.816-1.036,1.066-1.68
			c0.248-0.644,0.375-1.329,0.375-2.06V22.208z"/>
		<path fill="#dc3545" d="M98.334,31.234v-2.659H98.27c-0.531,0.955-1.256,1.695-2.174,2.221c-0.919,0.525-1.955,0.789-3.113,0.789
			c-0.785,0-1.492-0.103-2.125-0.308c-0.631-0.204-1.166-0.494-1.607-0.868c-0.439-0.375-0.779-0.825-1.019-1.352
			c-0.237-0.525-0.358-1.105-0.358-1.738c0-1.353,0.455-2.432,1.369-3.235c0.912-0.803,2.292-1.325,4.139-1.57l4.953-0.656
			c0-2.873-1.217-4.31-3.648-4.31c-1.898,0-3.66,0.639-5.283,1.913v-2.044c0.338-0.224,0.723-0.427,1.153-0.606
			s0.884-0.336,1.36-0.467c0.479-0.132,0.969-0.234,1.471-0.307c0.506-0.073,0.997-0.111,1.477-0.111
			c1.814,0,3.185,0.469,4.113,1.403c0.93,0.935,1.393,2.327,1.393,4.178v9.728H98.334z M94.129,23.975
			c-0.731,0.098-1.357,0.219-1.878,0.365c-0.519,0.146-0.95,0.344-1.29,0.592c-0.339,0.248-0.59,0.555-0.75,0.92
			c-0.158,0.365-0.236,0.816-0.236,1.351c0,0.399,0.076,0.771,0.229,1.11c0.156,0.341,0.379,0.637,0.67,0.885
			s0.648,0.44,1.068,0.575c0.418,0.138,0.893,0.206,1.424,0.206c0.721,0,1.385-0.127,1.988-0.381
			c0.607-0.253,1.129-0.603,1.57-1.051s0.785-0.984,1.035-1.606c0.251-0.623,0.375-1.301,0.375-2.03v-1.476L94.129,23.975z"/>
		<path fill="#dc3545" d="M29.489,21.193c0.277-0.784,0.672-1.446,1.186-1.987c0.516-0.541,1.133-0.952,1.855-1.234
			c0.721-0.282,1.529-0.424,2.42-0.424c1.815,0,3.211,0.533,4.188,1.6c0.973,1.063,1.461,2.601,1.465,4.608h2.102
			c0-0.005,0-0.009,0-0.015c0-1.228-0.176-2.322-0.525-3.286S41.325,18.673,40.667,18c-0.659-0.671-1.46-1.185-2.404-1.54
			c-0.945-0.355-2.007-0.534-3.185-0.534c-1.232,0-2.347,0.182-3.343,0.542c-0.998,0.359-1.85,0.883-2.557,1.569
			s-1.248,1.522-1.631,2.505c-0.369,0.949-0.555,2.021-0.568,3.214h2.1C29.088,22.805,29.222,21.949,29.489,21.193z"/>
	</g>
</g>
</svg>
